<svg xmlns="http://www.w3.org/2000/svg" viewBox="0 0 66.6 64.3" width="66" height="66"><style>.st0{fill:#fb520c}.st1{fill:#fff}</style><path id="XMLID_13_" class="st0" d="M66.8 35.4v29.1H0V.1h66.8v35.3"/><path id="XMLID_11_" class="st1" d="M24.3 31h-2.7v-7-.1c-.3 1-2.3 5.1-2.8 6.7-.1.3-.3.5-.6.4h-1.7c-.3 0-.5-.1-.6-.4-.7-2.1-2.6-6.3-2.6-6.3l-.2-.4V31h-2.6V20.1h3.4c.1 0 .4.5.4.5l3.1 7.2 3.2-7.3.4-.4h3.3V31z"/><path id="XMLID_10_" class="st1" d="M23.7 40.8v2.5h5.8v2.1h-8.3V34.6h8.1v2.1h-5.5V39h4.9v1.9c-1.7-.1-3.3-.1-5-.1z"/><path id="XMLID_9_" class="st1" d="M47.9 20.1c-1.6 1.8-3.2 3.5-4.7 5.2 1.6 1.8 3.3 3.7 5 5.6h-3.1c-.2 0-.5-.3-.6-.6-1.2-1.4-2.3-2.8-3.5-4.2l-.3-.3v5h-2.5V20h2.5v4.5h.1c.7-.8 1.4-1.7 2.1-2.5.5-.6 1-1.2 1.6-1.8.1-.1.3-.3.5-.3.9.2 1.8.2 2.9.2z"/><path id="XMLID_8_" class="st1" d="M19.2 35.5c-.4.5-.7 1.1-1 1.5-.8-.3-1.6-.6-2.4-.7-.6-.1-1.2 0-1.8.2-.3.1-.6.5-.6.7 0 .3.2.7.5.8.6.3 1.2.5 1.8.7.7.2 1.3.4 2 .7 1.3.6 2.1 1.5 2 2.9 0 1.4-.8 2.3-2.1 2.9-2.4 1-5.5.4-7.5-1.3.4-.5.8-1.1 1.2-1.6 1 .7 2 1.3 3.2 1.3.6 0 1.2 0 1.8-.2.9-.3 1-1.4.2-1.9-.4-.3-1-.4-1.5-.6-.7-.2-1.4-.4-2.1-.7-1.4-.5-2.1-1.5-2.1-2.8 0-1.3.8-2.3 2.3-2.8 2-.7 4.4-.3 6.1.9z"/><path id="XMLID_7_" class="st1" d="M30.8 45.4V34.6h2.5v8.7h5.5v2.1h-8z"/><path id="XMLID_6_" class="st1" d="M40.1 34.6h2.5v8.7h5.5v2.1h-8V34.6z"/><path class="st1" d="M31.3 22.1c1.9 0 3.5 1.5 3.5 3.4s-1.6 3.4-3.5 3.4-3.5-1.5-3.5-3.4 1.5-3.4 3.5-3.4m0-2.3c-3.3 0-6 2.6-6 5.7s2.7 5.7 6 5.7 6-2.6 6-5.7-2.7-5.7-6-5.7z"/><path id="XMLID_3_" class="st1" d="M49.4 34.6h8.1v2h-8.1z"/><path id="XMLID_2_" class="st1" d="M49.4 43.3h8.1v2h-8.1z"/><path id="XMLID_1_" class="st1" d="M49.4 39h8.1v2h-8.1z"/></svg>